<?xml version="1.0" encoding="utf-8"?>
<!-- Generator: Adobe Illustrator 26.0.3, SVG Export Plug-In . SVG Version: 6.00 Build 0)  -->
<svg version="1.1" id="Layer_1" xmlns="http://www.w3.org/2000/svg" xmlns:xlink="http://www.w3.org/1999/xlink" x="0px" y="0px"
	 viewBox="0 0 277 349" style="enable-background:new 0 0 277 349;" xml:space="preserve">
<style type="text/css">
	.st0{fill:none;stroke:#000000;stroke-width:8;stroke-miterlimit:10;}
	.st1{fill:none;stroke:#000000;stroke-miterlimit:10;}
</style>
<g>
	<line class="st0" x1="40.5" y1="27" x2="43.5" y2="327"/>
</g>
<g>
	<line class="st0" x1="74.5" y1="77" x2="76.5" y2="277"/>
</g>
<path class="st1" d="M471.27,397.16c0.18,0.01,0.37,0.01,0.56,0.01c0.26,0.01,0.53,0.01,0.79,0.01"/>
<path class="st1" d="M513.06,251.07c-0.19,0-0.37-0.01-0.56-0.01v-0.01C512.69,251.06,512.87,251.06,513.06,251.07z"/>
<g>
	<line class="st0" x1="107.5" y1="27" x2="110.5" y2="327"/>
</g>
<path class="st0" d="M128.02,83.16C148,83,169,93,179,112c9,17,6,37-6,52c-11,13-28,20-44.9,20"/>
<path class="st0" d="M173.71,74.51C192,80,205,96,211,113c10,30-4,67-33.97,79.13"/>
<path class="st0" d="M128.76,31.18C171,31,213,52,233,90c6,11,9,23,10,36c1,7,0,15-1,22c-8,54-61,89-112.55,87.85"/>
</svg>
